<svg xmlns="http://www.w3.org/2000/svg" width="171" height="190" stroke="#000" stroke-linecap="round" stroke-linejoin="round" fill="#fff" fill-rule="evenodd"><path d="M85 8.5987l84.9679 13.6605v8.0439c0 11.9617-38.0592 21.6004-85 21.6004S0 42.2648 0 30.3031v-8.7374zm0 58.04c35.4943 0 65.8903-5.5128 78.6194-13.3484l4.1682-7.6278 1.6994-6.9343v8.5987l-27.799 128.2844c0 7.9746-25.3621 14.3887-56.6559 14.3887s-56.6241-6.4141-56.6241-14.3887L.6092 47.3269v-8.4253l6.4126 14.6661C19.7831 61.2646 49.8905 66.6387 85 66.6387z" fill="#8c3123" stroke="none"/><path d="M85 0c46.9408 0 85 9.6734 85 21.5657s-38.0913 21.4964-85 21.4964S.0321 33.5274.0321 21.5657 38.0592 0 85 0zm0 58.0403c43.7667 0 79.7738-8.356 84.455-19.1734l-27.7991 128.2844c0 7.9746-25.3618 14.389-56.6559 14.389s-56.6559-6.3797-56.6559-14.354L.5451 38.9016C5.2586 49.6843 41.2656 58.0403 85 58.0403z" stroke="none" fill="#e05243"/></svg>