<svg xmlns="http://www.w3.org/2000/svg" width="200" height="220" stroke="none" stroke-linecap="round" stroke-linejoin="round" fill="#fff" fill-rule="evenodd"><path d="M28.4746 97.6049l-6.5372.4829L0 97.2828l6.066-27.6072 22.4086 27.9293z" fill="#3c4929"/><path d="M28.4746 123.2806l-6.5372-.4829L0 123.6026l6.066 27.6073 22.4086-27.9293z" fill="#b7ca9d"/><path d="M6.066 124.1391L0 123.6026v25.9438l6.066 1.6634v-27.0707z" fill="#4b612c"/><path d="M28.4746 148.5537L6.066 151.2099v-27.0438l22.4086-.8855v25.2731z" fill="#759c3e"/><path d="M69.5523 125.4002l-18.0212-1.2611-31.5077 1.4487 16.8729 49.3927 32.656-49.5803z" fill="#b7ca9d"/><path d="M6.066 96.7196L0 97.2828V71.3391l6.066-1.6635v27.044z" fill="#4b612c"/><path d="M28.4746 72.3318L6.066 69.6756v27.0171l22.4086.9122V72.3318z" fill="#759c3e"/><path d="M69.5523 95.4852l-18.0212 1.2342-31.5077-1.422 16.8729-49.3122 32.656 49.5z" fill="#3c4929"/><path d="M20.0234 51.2168l16.8729-5.2316v47.7562l-16.8729 1.556V51.2168z" fill="#4b612c"/><path d="M69.5526 52.451l-32.6563-6.4658v47.7562l32.6563 1.7438V52.451z" fill="#759c3e"/><path d="M20.0234 169.2927l16.8729 5.6879V127.144l-16.8729-1.5562v43.7049z" fill="#4b612c"/><path d="M69.5526 168.8365l-32.6563 6.1438v-47.8365L69.5526 125.4v43.4365z" fill="#759c3e"/><path d="M57.7149 200.7365L99.9703 220l99.0286-110L99.9703 0 57.7149 19.2635v181.473z" fill="#4b612c"/><path d="M200 174.444L99.9703 220V0L200 45.5562V174.444z" fill="#759c3e"/></svg>