<svg xmlns="http://www.w3.org/2000/svg" width="190" height="210">
    <path d="M95 9.5038l94.9641 15.0985v8.8906c0 13.2208-42.5367 23.8741-95 23.8741S0 46.7137 0 33.4929v-9.6571zm.0002 64.1495c39.6699 0 73.6417-6.0932 87.8686-14.7536l4.6586-8.4307 1.8993-7.6642v9.5038l-31.0693 141.7881c0 8.8139-28.3459 15.9033-63.3215 15.9033s-63.2857-7.0894-63.2857-15.9033L.6809 52.3086v-9.3122l7.167 16.2099c14.2626 8.5071 47.9121 14.447 87.1523 14.447z" fill="#8c3123"/>
    <path d="M95 0c52.4633 0 95 10.6916 95 23.8358s-42.5725 23.7591-95 23.7591S.0359 37.0566.0359 23.8358 42.5368 0 95 0zm0 64.1497c48.9155 0 89.1589-9.2355 94.3908-21.1916l-31.0692 141.7881c0 8.8139-28.3459 15.9035-63.3216 15.9035s-63.3213-7.0512-63.3213-15.865L.6092 42.9964C5.877 54.9142 46.1204 64.1497 95 64.1497z" fill="#e05243"/>
    <path d="M72.6387 77.6772h41.139v43.686h-41.139zm-32.7178 80.6659c0-11.9314 9.0461-21.5365 20.2827-21.5365s20.2833 9.6051 20.2833 21.5365-9.0462 21.5363-20.2833 21.5363-20.2827-9.6051-20.2827-21.5363zm105.5711 20.5401h-40.6374l20.3186-40.1604 20.3188 40.1604z" fill="#fff"/>
</svg>